<svg xmlns="http://www.w3.org/2000/svg" viewBox="0 0 56 56">
<g fill="#65CCB8">
<ellipse cx="28.0" cy="12.319999999999999" rx="2.52" ry="6.16" transform="rotate(0.0 28.0 28.0)"/>
<ellipse cx="28.0" cy="12.319999999999999" rx="2.52" ry="6.16" transform="rotate(36.0 28.0 28.0)"/>
<ellipse cx="28.0" cy="12.319999999999999" rx="2.52" ry="6.16" transform="rotate(72.0 28.0 28.0)"/>
<ellipse cx="28.0" cy="12.319999999999999" rx="2.52" ry="6.16" transform="rotate(108.0 28.0 28.0)"/>
<ellipse cx="28.0" cy="12.319999999999999" rx="2.52" ry="6.16" transform="rotate(144.0 28.0 28.0)"/>
<ellipse cx="28.0" cy="12.319999999999999" rx="2.52" ry="6.16" transform="rotate(180.0 28.0 28.0)"/>
<ellipse cx="28.0" cy="12.319999999999999" rx="2.52" ry="6.16" transform="rotate(216.0 28.0 28.0)"/>
<ellipse cx="28.0" cy="12.319999999999999" rx="2.52" ry="6.16" transform="rotate(252.0 28.0 28.0)"/>
<ellipse cx="28.0" cy="12.319999999999999" rx="2.52" ry="6.16" transform="rotate(288.0 28.0 28.0)"/>
<ellipse cx="28.0" cy="12.319999999999999" rx="2.52" ry="6.16" transform="rotate(324.0 28.0 28.0)"/>
</g>
<circle cx="28.0" cy="28.0" r="5" fill="#57BA98"/>
</svg>